<svg width="88" height="88" viewBox="0 0 88 88" fill="none" xmlns="http://www.w3.org/2000/svg">
<path d="M44 9.625C25.0456 9.625 9.625 25.0456 9.625 44C9.625 62.9544 25.0456 78.375 44 78.375C62.9544 78.375 78.375 62.9544 78.375 44C78.375 25.0456 62.9544 9.625 44 9.625ZM44 23.7188C44.8838 23.7187 45.7478 23.9808 46.4827 24.4719C47.2176 24.9629 47.7904 25.6608 48.1286 26.4774C48.4668 27.2939 48.5553 28.1925 48.3829 29.0593C48.2105 29.9262 47.7848 30.7224 47.1599 31.3474C46.5349 31.9724 45.7387 32.398 44.8718 32.5704C44.005 32.7428 43.1064 32.6543 42.2899 32.3161C41.4733 31.9779 40.7754 31.4051 40.2844 30.6702C39.7933 29.9353 39.5312 29.0713 39.5312 28.1875C39.5312 27.0023 40.0021 25.8657 40.8401 25.0276C41.6782 24.1896 42.8148 23.7188 44 23.7188ZM52.25 62.5625H37.125C36.3957 62.5625 35.6962 62.2728 35.1805 61.757C34.6647 61.2413 34.375 60.5418 34.375 59.8125C34.375 59.0832 34.6647 58.3837 35.1805 57.868C35.6962 57.3522 36.3957 57.0625 37.125 57.0625H41.9375V41.9375H39.1875C38.4582 41.9375 37.7587 41.6478 37.243 41.132C36.7272 40.6163 36.4375 39.9168 36.4375 39.1875C36.4375 38.4582 36.7272 37.7587 37.243 37.243C37.7587 36.7272 38.4582 36.4375 39.1875 36.4375H44.6875C45.4168 36.4375 46.1163 36.7272 46.632 37.243C47.1478 37.7587 47.4375 38.4582 47.4375 39.1875V57.0625H52.25C52.9793 57.0625 53.6788 57.3522 54.1945 57.868C54.7103 58.3837 55 59.0832 55 59.8125C55 60.5418 54.7103 61.2413 54.1945 61.757C53.6788 62.2728 52.9793 62.5625 52.25 62.5625Z" fill="white" stroke="white" stroke-width="0.171875"/>
</svg>
